<svg width="158" height="36" viewBox="0 0 158 36" fill="none" xmlns="http://www.w3.org/2000/svg">
<path d="M25.7363 16.912C27.0364 15.8233 27.8631 14.1881 27.8631 12.3598C27.8631 10.5316 27.0364 8.89637 25.7363 7.8077C25.8853 7.73554 26.0287 7.65724 26.1653 7.57239C27.0276 7.03621 28.0454 6.72656 29.1355 6.72656C32.2467 6.72656 34.7688 9.24871 34.7688 12.3598C34.7688 15.471 32.2467 17.9931 29.1355 17.9931C28.0454 17.9931 27.0276 17.6834 26.1653 17.1473C26.0287 17.0624 25.8853 16.9841 25.7363 16.912Z" fill="url(#paint0_linear_1_7605)"/>
<path d="M24.1713 13.2468C24.7528 11.6539 24.6512 9.82446 23.7371 8.24112C22.8229 6.65778 21.2893 5.65501 19.6191 5.36222C19.7121 5.22527 19.7971 5.08576 19.8729 4.94397C20.3516 4.0485 21.0783 3.27142 22.0223 2.72636C24.7167 1.17077 28.162 2.09393 29.7176 4.78827C31.2731 7.48263 30.35 10.9279 27.6556 12.4835C26.7115 13.0285 25.6752 13.2692 24.6604 13.2361C24.4997 13.2308 24.3364 13.2348 24.1713 13.2468Z" fill="url(#paint1_linear_1_7605)"/>
<path d="M20.9841 10.854C20.6914 9.18387 19.6886 7.6503 18.1052 6.73615C16.5219 5.822 14.6924 5.72038 13.0996 6.3019C13.1117 6.13683 13.1155 5.9735 13.1102 5.81282C13.0771 4.79794 13.3178 3.76166 13.8629 2.81757C15.4186 0.123224 18.8638 -0.799928 21.5582 0.755655C24.2524 2.31124 25.1757 5.75649 23.62 8.45087C23.075 9.39492 22.2979 10.1216 21.4024 10.6003C21.2607 10.6761 21.1212 10.7611 20.9841 10.854Z" fill="url(#paint2_linear_1_7605)"/>
<path d="M17.0273 10.3762C15.9386 9.0762 14.3034 8.24949 12.4751 8.24949C10.6467 8.24949 9.01158 9.0762 7.92292 10.3762C7.85081 10.2272 7.77249 10.0839 7.6876 9.94726C7.15145 9.08494 6.8418 8.06718 6.8418 6.97703C6.8418 3.86585 9.3639 1.34375 12.4751 1.34375C15.5863 1.34375 18.1083 3.86585 18.1083 6.97703C18.1083 8.06718 17.7987 9.08494 17.2626 9.94726C17.1776 10.0839 17.0993 10.2272 17.0273 10.3762Z" fill="url(#paint3_linear_1_7605)"/>
<path d="M13.3601 11.9406C11.7673 11.3591 9.93777 11.4607 8.35442 12.3748C6.77106 13.289 5.7683 14.8225 5.47552 16.4927C5.33857 16.3997 5.19905 16.3148 5.05726 16.239C4.16178 15.7602 3.38471 15.0336 2.83965 14.0895C1.28405 11.3951 2.20721 7.94994 4.90156 6.39433C7.59592 4.83874 11.0412 5.76189 12.5968 8.45627C13.1419 9.40032 13.3826 10.4366 13.3494 11.4515C13.3442 11.6121 13.348 11.7755 13.3601 11.9406Z" fill="url(#paint4_linear_1_7605)"/>
<path d="M10.9674 15.1298C9.29718 15.4226 7.76362 16.4254 6.84947 18.0087C5.93533 19.5921 5.83371 21.4216 6.41524 23.0144C6.25014 23.0023 6.08679 22.9985 5.92609 23.0037C4.91122 23.0369 3.87494 22.7961 2.93086 22.2511C0.236505 20.6954 -0.686648 17.2502 0.868937 14.5558C2.42452 11.8615 5.86978 10.9383 8.56413 12.494C9.50821 13.039 10.2348 13.8161 10.7136 14.7115C10.7894 14.8533 10.8744 14.9928 10.9674 15.1298Z" fill="url(#paint5_linear_1_7605)"/>
<path d="M10.4875 19.087C9.18751 20.1757 8.36077 21.8109 8.36077 23.6391C8.36077 25.4675 9.18751 27.1027 10.4875 28.1913C10.3386 28.2634 10.1952 28.3418 10.0586 28.4266C9.19629 28.9627 8.17849 29.2724 7.08835 29.2724C3.97718 29.2724 1.45508 26.7503 1.45508 23.6391C1.45508 20.5279 3.97718 18.0059 7.08835 18.0059C8.17849 18.0059 9.19629 18.3155 10.0586 18.8517C10.1952 18.9366 10.3386 19.0149 10.4875 19.087Z" fill="url(#paint6_linear_1_7605)"/>
<path d="M12.052 22.7539C11.4704 24.3467 11.572 26.1762 12.4861 27.7595C13.4003 29.343 14.9339 30.3457 16.6041 30.6384C16.5111 30.7755 16.4261 30.915 16.3503 31.0568C15.8716 31.9522 15.1449 32.7293 14.2009 33.2743C11.5065 34.83 8.06124 33.9067 6.50566 31.2125C4.95007 28.5181 5.87323 25.0729 8.56757 23.5172C9.51167 22.9721 10.548 22.7314 11.5628 22.7646C11.7235 22.7698 11.8868 22.766 12.052 22.7539Z" fill="url(#paint7_linear_1_7605)"/>
<path d="M15.2411 25.1465C15.5339 26.8167 16.5366 28.3502 18.12 29.2643C19.7033 30.1785 21.5329 30.2801 23.1257 29.6986C23.1137 29.8637 23.1098 30.027 23.115 30.1877C23.1482 31.2026 22.9075 32.2389 22.3624 33.1829C20.8068 35.8773 17.3616 36.8005 14.6672 35.2448C11.9728 33.6893 11.0497 30.2441 12.6053 27.5497C13.1504 26.6056 13.9274 25.879 14.8228 25.4002C14.9647 25.3244 15.1042 25.2394 15.2411 25.1465Z" fill="url(#paint8_linear_1_7605)"/>
<path d="M19.1963 25.625C20.285 26.925 21.9202 27.7517 23.7485 27.7517C25.5768 27.7517 27.212 26.925 28.3007 25.625C28.3728 25.774 28.4511 25.9174 28.536 26.0539C29.0721 26.9162 29.3818 27.9341 29.3818 29.0242C29.3818 32.1354 26.8597 34.6574 23.7485 34.6574C20.6373 34.6574 18.1152 32.1354 18.1152 29.0242C18.1152 27.9341 18.4249 26.9162 18.961 26.0539C19.046 25.9174 19.1243 25.774 19.1963 25.625Z" fill="url(#paint9_linear_1_7605)"/>
<path d="M22.8652 24.0599C24.4581 24.6414 26.2875 24.5398 27.8709 23.6257C29.4542 22.7116 30.457 21.178 30.7498 19.5078C30.8867 19.6007 31.0262 19.6858 31.168 19.7616C32.0635 20.2403 32.8406 20.9669 33.3857 21.911C34.9413 24.6054 34.0181 28.0506 31.3238 29.6062C28.6294 31.1618 25.1842 30.2387 23.6285 27.5443C23.0835 26.6002 22.8427 25.5639 22.8759 24.5491C22.8812 24.3884 22.8773 24.225 22.8652 24.0599Z" fill="url(#paint10_linear_1_7605)"/>
<path d="M29.381 17.9882C29.3799 17.9902 29.3787 17.9921 29.3776 17.9941C28.4635 19.5775 26.9299 20.5802 25.2598 20.873C25.3526 21.01 25.4377 21.1496 25.5135 21.2913C25.9922 22.1868 26.7189 22.9638 27.6629 23.5089C30.3573 25.0646 33.8025 24.1413 35.3582 21.447C36.6917 19.137 36.2035 16.2752 34.3393 14.5254C33.5203 16.4908 31.6198 17.8928 29.381 17.9882Z" fill="url(#paint11_linear_1_7605)"/>
<path d="M49.3205 7.34831V24.1729H45.5918V7.34831H49.3205ZM46.1829 24.1729L46.2511 20.8762H55.9139V24.1729H46.1829ZM56.4975 18.4662C56.4975 17.2688 56.7476 16.2229 57.2477 15.3286C57.7479 14.4191 58.4527 13.7144 59.3622 13.2142C60.2716 12.714 61.3326 12.4639 62.5452 12.4639C63.7578 12.4639 64.8112 12.714 65.7055 13.2142C66.6149 13.7144 67.3197 14.4191 67.8199 15.3286C68.3201 16.2229 68.5702 17.2688 68.5702 18.4662C68.5702 19.6636 68.3201 20.7095 67.8199 21.6038C67.3197 22.4981 66.6149 23.1952 65.7055 23.6954C64.8112 24.1956 63.7578 24.4457 62.5452 24.4457C61.3326 24.4457 60.2716 24.1956 59.3622 23.6954C58.4527 23.1952 57.7479 22.4981 57.2477 21.6038C56.7476 20.7095 56.4975 19.6636 56.4975 18.4662ZM60.0215 18.4435C60.0215 19.0194 60.1276 19.5272 60.3398 19.9668C60.552 20.3912 60.8476 20.7246 61.2265 20.9672C61.6054 21.1945 62.045 21.3082 62.5452 21.3082C63.0454 21.3082 63.4849 21.1945 63.8639 20.9672C64.2428 20.7246 64.5308 20.3912 64.7279 19.9668C64.9401 19.5272 65.0462 19.0194 65.0462 18.4435C65.0462 17.8675 64.9401 17.3673 64.7279 16.9429C64.5308 16.5185 64.2428 16.1926 63.8639 15.9652C63.4849 15.7227 63.0454 15.6014 62.5452 15.6014C62.045 15.6014 61.6054 15.7227 61.2265 15.9652C60.8476 16.1926 60.552 16.5185 60.3398 16.9429C60.1276 17.3673 60.0215 17.8675 60.0215 18.4435ZM69.3609 18.2844C69.3609 17.1172 69.5958 16.0941 70.0657 15.2149C70.5355 14.3358 71.1797 13.6538 71.9982 13.1687C72.8167 12.6685 73.7565 12.4184 74.8175 12.4184C75.7117 12.4184 76.4999 12.6003 77.182 12.9641C77.8793 13.3279 78.3491 13.8054 78.5917 14.3964L78.2506 14.6238L78.5235 12.805H81.6837V23.4453C81.6837 24.7792 81.426 25.9312 80.9107 26.9013C80.3953 27.8864 79.6602 28.6443 78.7053 29.1748C77.7656 29.7053 76.6439 29.9706 75.3403 29.9706C74.2491 29.9706 73.2639 29.7508 72.3847 29.3112C71.5207 28.8868 70.8159 28.2805 70.2703 27.4924C69.7398 26.7042 69.4215 25.7948 69.3154 24.764H72.8622C72.8925 25.4158 73.1502 25.916 73.6352 26.2647C74.1354 26.6133 74.772 26.7876 75.545 26.7876C76.409 26.7876 77.0759 26.5451 77.5458 26.06C78.0157 25.5901 78.2506 24.9611 78.2506 24.1729V21.7629L78.5689 22.0585C78.3264 22.6497 77.8565 23.1271 77.1593 23.4908C76.462 23.8546 75.6587 24.0365 74.7493 24.0365C73.7034 24.0365 72.7712 23.794 71.9527 23.3089C71.1494 22.824 70.5127 22.1495 70.0429 21.2855C69.5882 20.4215 69.3609 19.4211 69.3609 18.2844ZM72.9076 18.1934C72.9076 18.739 73.0213 19.224 73.2487 19.6484C73.4761 20.0729 73.7792 20.4063 74.1582 20.6488C74.5371 20.8762 74.9538 20.9899 75.4086 20.9899C75.9542 20.9899 76.4317 20.8762 76.841 20.6488C77.2654 20.4063 77.5913 20.0729 77.8186 19.6484C78.0611 19.224 78.1824 18.739 78.1824 18.1934C78.1824 17.6326 78.0611 17.1551 77.8186 16.761C77.5761 16.3518 77.2426 16.0334 76.8182 15.8061C76.409 15.5787 75.9315 15.465 75.3858 15.465C74.9312 15.465 74.5144 15.5787 74.1354 15.8061C73.7565 16.0334 73.4533 16.3518 73.226 16.761C73.0137 17.1703 72.9076 17.6477 72.9076 18.1934ZM82.9316 18.4662C82.9316 17.2688 83.1817 16.2229 83.6819 15.3286C84.182 14.4191 84.8868 13.7144 85.7963 13.2142C86.7057 12.714 87.7668 12.4639 88.9793 12.4639C90.1919 12.4639 91.2453 12.714 92.1397 13.2142C93.049 13.7144 93.7538 14.4191 94.254 15.3286C94.7542 16.2229 95.0043 17.2688 95.0043 18.4662C95.0043 19.6636 94.7542 20.7095 94.254 21.6038C93.7538 22.4981 93.049 23.1952 92.1397 23.6954C91.2453 24.1956 90.1919 24.4457 88.9793 24.4457C87.7668 24.4457 86.7057 24.1956 85.7963 23.6954C84.8868 23.1952 84.182 22.4981 83.6819 21.6038C83.1817 20.7095 82.9316 19.6636 82.9316 18.4662ZM86.4556 18.4435C86.4556 19.0194 86.5617 19.5272 86.7739 19.9668C86.9861 20.3912 87.2817 20.7246 87.6607 20.9672C88.0396 21.1945 88.4792 21.3082 88.9793 21.3082C89.4795 21.3082 89.9191 21.1945 90.298 20.9672C90.6769 20.7246 90.9649 20.3912 91.162 19.9668C91.3742 19.5272 91.4803 19.0194 91.4803 18.4435C91.4803 17.8675 91.3742 17.3673 91.162 16.9429C90.9649 16.5185 90.6769 16.1926 90.298 15.9652C89.9191 15.7227 89.4795 15.6014 88.9793 15.6014C88.4792 15.6014 88.0396 15.7227 87.6607 15.9652C87.2817 16.1926 86.9861 16.5185 86.7739 16.9429C86.5617 17.3673 86.4556 17.8675 86.4556 18.4435ZM96.4771 24.1729V12.805H100.001V24.1729H96.4771ZM98.2504 11.0315C97.6896 11.0315 97.2122 10.842 96.8181 10.4631C96.4392 10.069 96.2497 9.59155 96.2497 9.03076C96.2497 8.46997 96.4392 8.00008 96.8181 7.62109C97.2122 7.2422 97.6896 7.05273 98.2504 7.05273C98.7961 7.05273 99.2584 7.2422 99.6373 7.62109C100.031 8.00008 100.228 8.46997 100.228 9.03076C100.228 9.59155 100.031 10.069 99.6373 10.4631C99.2584 10.842 98.7961 11.0315 98.2504 11.0315ZM102.28 29.6296V12.805H105.486L105.667 14.1918C105.986 13.6614 106.494 13.237 107.191 12.9186C107.888 12.6003 108.639 12.4412 109.442 12.4412C110.503 12.4412 111.427 12.6761 112.215 13.146C113.004 13.6159 113.625 14.2903 114.08 15.1695C114.534 16.0334 114.777 17.0793 114.808 18.3071C114.838 19.5044 114.64 20.5731 114.216 21.5128C113.792 22.4374 113.178 23.165 112.375 23.6954C111.571 24.226 110.601 24.4912 109.464 24.4912C108.676 24.4912 107.941 24.3548 107.259 24.082C106.577 23.8091 106.069 23.4605 105.736 23.0362V29.6296H102.28ZM105.804 18.489C105.804 19.0497 105.917 19.5499 106.145 19.9895C106.388 20.4139 106.714 20.7474 107.123 20.9899C107.547 21.2173 108.032 21.3309 108.577 21.3309C109.139 21.3309 109.617 21.2097 110.01 20.9672C110.419 20.7246 110.731 20.3912 110.942 19.9668C111.17 19.5423 111.283 19.0497 111.283 18.489C111.283 17.9281 111.17 17.4355 110.942 17.0111C110.731 16.5867 110.419 16.2532 110.01 16.0107C109.617 15.7682 109.139 15.6469 108.577 15.6469C108.032 15.6469 107.547 15.7682 107.123 16.0107C106.714 16.2381 106.388 16.564 106.145 16.9884C105.917 17.4128 105.804 17.913 105.804 18.489ZM115.408 20.5806H118.569C118.569 20.9747 118.697 21.2855 118.955 21.5128C119.228 21.7402 119.621 21.8539 120.137 21.8539C120.44 21.8539 120.691 21.816 120.887 21.7402C121.1 21.6644 121.259 21.5583 121.364 21.4219C121.486 21.2703 121.546 21.1036 121.546 20.9217C121.546 20.7246 121.479 20.5579 121.342 20.4215C121.221 20.2851 121.008 20.179 120.705 20.1032L118.705 19.5802C117.583 19.2771 116.787 18.8299 116.318 18.2389C115.847 17.6477 115.613 16.9732 115.613 16.2153C115.613 15.4574 115.802 14.7981 116.181 14.2373C116.575 13.6614 117.106 13.2218 117.772 12.9186C118.44 12.6003 119.189 12.4412 120.023 12.4412C121.281 12.4412 122.312 12.7898 123.116 13.4871C123.934 14.169 124.366 15.1012 124.412 16.2835H121.251C121.266 15.8894 121.153 15.5787 120.91 15.3513C120.668 15.1088 120.349 14.9876 119.956 14.9876C119.607 14.9876 119.318 15.0785 119.091 15.2604C118.879 15.4271 118.773 15.6621 118.773 15.9652C118.773 16.2532 118.879 16.4654 119.091 16.6019C119.304 16.7231 119.591 16.8292 119.956 16.9202L121.979 17.4204C122.919 17.6477 123.631 18.0343 124.116 18.5799C124.601 19.1255 124.843 19.8228 124.843 20.6716C124.843 21.8387 124.412 22.7633 123.548 23.4453C122.683 24.1274 121.562 24.4685 120.183 24.4685C118.758 24.4685 117.613 24.1123 116.75 23.3999C115.9 22.6724 115.453 21.7326 115.408 20.5806ZM130.43 24.4685C129.096 24.4685 128.065 24.0516 127.338 23.2181C126.611 22.3844 126.246 21.293 126.246 19.944V12.805H129.748V18.6708C129.748 19.7318 129.937 20.4442 130.316 20.808C130.695 21.1718 131.195 21.3537 131.817 21.3537C132.621 21.3537 133.173 21.1263 133.476 20.6716C133.779 20.2169 133.931 19.5651 133.931 18.7162V12.805H137.433V24.1729H134.137L133.909 22.8998C133.56 23.3695 133.067 23.7485 132.431 24.0365C131.794 24.3245 131.128 24.4685 130.43 24.4685ZM143.213 24.1729H139.688V12.805H142.963L143.213 14.7602L142.826 14.3509C143.129 13.775 143.584 13.3127 144.19 12.9641C144.812 12.6003 145.478 12.4184 146.192 12.4184C147.313 12.4184 148.192 12.6685 148.829 13.1687C149.481 13.6689 149.95 14.3282 150.238 15.1467H149.692C149.874 14.3282 150.314 13.6689 151.011 13.1687C151.709 12.6685 152.542 12.4184 153.512 12.4184C154.982 12.4184 156.066 12.8125 156.764 13.6007C157.46 14.3888 157.809 15.4347 157.809 16.7383V24.1729H154.399V17.6023C154.399 16.8898 154.224 16.3593 153.876 16.0107C153.542 15.6621 153.096 15.4878 152.534 15.4878C152.201 15.4878 151.883 15.5636 151.58 15.7151C151.277 15.8515 151.026 16.1016 150.829 16.4654C150.632 16.8141 150.533 17.3143 150.533 17.966V24.1729H147.078V17.6023C147.078 16.8898 146.911 16.3669 146.578 16.0334C146.244 15.6848 145.797 15.5105 145.236 15.5105C144.903 15.5105 144.577 15.5863 144.258 15.7379C143.955 15.8743 143.705 16.1244 143.508 16.4882C143.312 16.8368 143.213 17.3294 143.213 17.966V24.1729Z" fill="#EAEAEA"/>
<defs>
<linearGradient id="paint0_linear_1_7605" x1="26.4416" y1="6.72656" x2="26.4416" y2="17.9931" gradientUnits="userSpaceOnUse">
<stop stop-color="#25136D"/>
<stop offset="1" stop-color="#3D9BA2"/>
</linearGradient>
<linearGradient id="paint1_linear_1_7605" x1="19.6894" y1="4.07328" x2="25.3227" y2="13.8304" gradientUnits="userSpaceOnUse">
<stop stop-color="#25136D"/>
<stop offset="1" stop-color="#3D9BA2"/>
</linearGradient>
<linearGradient id="paint2_linear_1_7605" x1="12.516" y1="5.15052" x2="22.2731" y2="10.7838" gradientUnits="userSpaceOnUse">
<stop stop-color="#25136D"/>
<stop offset="1" stop-color="#3D9BA2"/>
</linearGradient>
<linearGradient id="paint3_linear_1_7605" x1="6.8418" y1="9.67082" x2="18.1083" y2="9.67082" gradientUnits="userSpaceOnUse">
<stop stop-color="#25136D"/>
<stop offset="1" stop-color="#3D9BA2"/>
</linearGradient>
<linearGradient id="paint4_linear_1_7605" x1="4.18657" y1="16.4224" x2="13.9437" y2="10.7892" gradientUnits="userSpaceOnUse">
<stop stop-color="#25136D"/>
<stop offset="1" stop-color="#3D9BA2"/>
</linearGradient>
<linearGradient id="paint5_linear_1_7605" x1="5.26382" y1="23.598" x2="10.8971" y2="13.8409" gradientUnits="userSpaceOnUse">
<stop stop-color="#25136D"/>
<stop offset="1" stop-color="#3D9BA2"/>
</linearGradient>
<linearGradient id="paint6_linear_1_7605" x1="9.7822" y1="29.2724" x2="9.7822" y2="18.0059" gradientUnits="userSpaceOnUse">
<stop stop-color="#25136D"/>
<stop offset="1" stop-color="#3D9BA2"/>
</linearGradient>
<linearGradient id="paint7_linear_1_7605" x1="16.5338" y1="31.9274" x2="10.9005" y2="22.1703" gradientUnits="userSpaceOnUse">
<stop stop-color="#25136D"/>
<stop offset="1" stop-color="#3D9BA2"/>
</linearGradient>
<linearGradient id="paint8_linear_1_7605" x1="23.7093" y1="30.85" x2="13.9522" y2="25.2167" gradientUnits="userSpaceOnUse">
<stop stop-color="#25136D"/>
<stop offset="1" stop-color="#3D9BA2"/>
</linearGradient>
<linearGradient id="paint9_linear_1_7605" x1="29.3818" y1="26.3303" x2="18.1152" y2="26.3303" gradientUnits="userSpaceOnUse">
<stop stop-color="#25136D"/>
<stop offset="1" stop-color="#3D9BA2"/>
</linearGradient>
<linearGradient id="paint10_linear_1_7605" x1="32.0388" y1="19.5781" x2="22.2816" y2="25.2114" gradientUnits="userSpaceOnUse">
<stop stop-color="#25136D"/>
<stop offset="1" stop-color="#3D9BA2"/>
</linearGradient>
<linearGradient id="paint11_linear_1_7605" x1="30.9633" y1="12.4049" x2="25.33" y2="22.162" gradientUnits="userSpaceOnUse">
<stop stop-color="#25136D"/>
<stop offset="1" stop-color="#3D9BA2"/>
</linearGradient>
</defs>
</svg>
