<svg width="139" height="36" viewBox="0 0 139 36" fill="none" xmlns="http://www.w3.org/2000/svg">
<path d="M46.638 9.25586H43.4141V23.8028H52.3388V20.9524H46.638V9.25586Z" fill="#EAEAEA"/>
<path d="M52.6465 18.8675C52.6465 21.9735 54.7303 24.0375 57.8755 24.0375C61.0011 24.0375 63.0849 21.9735 63.0849 18.8675C63.0849 15.7615 61.0011 13.6777 57.8755 13.6777C54.7303 13.6777 52.6465 15.7615 52.6465 18.8675ZM55.6934 18.8478C55.6934 17.3735 56.5584 16.3906 57.8755 16.3906C59.1729 16.3906 60.0379 17.3735 60.0379 18.8478C60.0379 20.3419 59.1729 21.3248 57.8755 21.3248C56.5584 21.3248 55.6934 20.3419 55.6934 18.8478Z" fill="#EAEAEA"/>
<path d="M63.5725 18.7104C63.5725 21.6787 65.4991 23.6838 68.2315 23.6838C69.5486 23.6838 70.6887 23.2121 71.2588 22.4454V23.8018C71.2588 25.1582 70.4135 26.0625 68.9195 26.0625C67.5827 26.0625 66.6588 25.4334 66.5999 24.3129H63.5332C63.8084 27.0061 65.8922 28.8146 68.7426 28.8146C72.1041 28.8146 74.2272 26.6326 74.2272 23.1727V13.9728H71.4947L71.3375 14.9754C70.787 14.1694 69.6272 13.6387 68.2905 13.6387C65.5383 13.6387 63.5725 15.7027 63.5725 18.7104ZM66.6392 18.6318C66.6392 17.2164 67.5827 16.2728 68.7819 16.2728C70.1776 16.2728 71.1998 17.1967 71.1998 18.6318C71.1998 20.0668 70.1973 21.0497 68.8015 21.0497C67.6025 21.0497 66.6392 20.0668 66.6392 18.6318Z" fill="#EAEAEA"/>
<path d="M75.1094 18.8675C75.1094 21.9735 77.1931 24.0375 80.3385 24.0375C83.4641 24.0375 85.5478 21.9735 85.5478 18.8675C85.5478 15.7615 83.4641 13.6777 80.3385 13.6777C77.1931 13.6777 75.1094 15.7615 75.1094 18.8675ZM78.1564 18.8478C78.1564 17.3735 79.0213 16.3906 80.3385 16.3906C81.6358 16.3906 82.5008 17.3735 82.5008 18.8478C82.5008 20.3419 81.6358 21.3248 80.3385 21.3248C79.0213 21.3248 78.1564 20.3419 78.1564 18.8478Z" fill="#EAEAEA"/>
<path d="M88.1576 12.4402C89.1012 12.4402 89.8679 11.6734 89.8679 10.7103C89.8679 9.747 89.1012 9 88.1576 9C87.1944 9 86.4277 9.747 86.4277 10.7103C86.4277 11.6734 87.1944 12.4402 88.1576 12.4402ZM86.6243 23.8025H89.6713V13.9735H86.6243V23.8025Z" fill="#EAEAEA"/>
<path d="M91.4453 28.5196H94.4333V22.8189C95.003 23.5659 96.3008 24.077 97.6571 24.077C100.586 24.077 102.355 21.836 102.277 18.73C102.198 15.565 100.37 13.6582 97.6373 13.6582C96.2414 13.6582 94.9247 14.2676 94.3739 15.1719L94.2164 13.9728H91.4453V28.5196ZM94.4918 18.8872C94.4918 17.4129 95.4746 16.43 96.8903 16.43C98.3249 16.43 99.2294 17.4325 99.2294 18.8872C99.2294 20.342 98.3249 21.3445 96.8903 21.3445C95.4746 21.3445 94.4918 20.3616 94.4918 18.8872Z" fill="#EAEAEA"/>
<path d="M102.6 20.6958C102.678 22.6812 104.251 24.0573 106.728 24.0573C109.107 24.0573 110.758 22.7991 110.758 20.7744C110.758 19.3197 109.893 18.3565 108.28 17.9633L106.532 17.5308C105.903 17.3736 105.509 17.2163 105.509 16.7052C105.509 16.194 105.922 15.8599 106.532 15.8599C107.219 15.8599 107.671 16.312 107.652 16.9804H110.385C110.305 14.9359 108.753 13.6582 106.59 13.6582C104.409 13.6582 102.777 14.9556 102.777 16.9214C102.777 18.2385 103.504 19.3197 105.45 19.8309L107.18 20.2829C107.691 20.4205 107.907 20.6564 107.907 20.9906C107.907 21.4821 107.455 21.7966 106.688 21.7966C105.804 21.7966 105.332 21.3838 105.332 20.6958H102.6Z" fill="#EAEAEA"/>
<path d="M115.391 24.0572C116.59 24.0572 117.789 23.5067 118.398 22.7008L118.595 23.8016H121.446V13.9727H118.418V19.0838C118.418 20.558 117.986 21.364 116.59 21.364C115.508 21.364 114.801 20.8726 114.801 19.0444V13.9727H111.773V20.1452C111.773 22.4846 113.071 24.0572 115.391 24.0572Z" fill="#EAEAEA"/>
<path d="M126.247 23.8018V18.4352C126.247 16.7839 127.131 16.3121 127.996 16.3121C128.959 16.3121 129.588 16.9019 129.588 18.1207V23.8018H132.576V18.4352C132.576 16.7643 133.441 16.2925 134.306 16.2925C135.269 16.2925 135.918 16.8822 135.918 18.1207V23.8018H138.867V17.3737C138.867 15.1327 137.687 13.6387 135.151 13.6387C133.736 13.6387 132.576 14.3266 132.065 15.3882C131.476 14.3266 130.453 13.6387 128.822 13.6387C127.741 13.6387 126.738 14.1301 126.149 14.9164L126.031 13.9728H123.199V23.8018H126.247Z" fill="#EAEAEA"/>
<path d="M0.214844 18C0.214844 9.51471 0.214844 5.27207 2.85088 2.63604C5.48692 0 9.72955 0 18.2148 0C26.7001 0 30.9427 0 33.5788 2.63604C36.2148 5.27207 36.2148 9.51471 36.2148 18C36.2148 26.4853 36.2148 30.7279 33.5788 33.364C30.9427 36 26.7001 36 18.2148 36C9.72955 36 5.48692 36 2.85088 33.364C0.214844 30.7279 0.214844 26.4853 0.214844 18Z" fill="#243A5A"/>
<path d="M21.816 23.4004C22.3131 23.4004 22.7251 23.8073 22.6264 24.2945C22.4519 25.1549 22.028 25.9523 21.398 26.5823C20.5541 27.4263 19.4095 27.9004 18.216 27.9004C17.0225 27.9004 15.878 27.4263 15.0341 26.5823C14.4041 25.9523 13.9802 25.1549 13.8058 24.2945C13.7069 23.8073 14.119 23.4004 14.616 23.4004H21.816Z" fill="#2DF8BB"/>
<path d="M23.7079 15.9981C23.2277 16.1267 22.9337 16.629 23.1772 17.0623C23.4334 17.5184 23.7878 17.9165 24.219 18.2255C24.896 18.7106 25.7202 18.946 26.5514 18.8915C27.3824 18.837 28.1689 18.4961 28.7768 17.9268C29.3847 17.3574 29.7763 16.5949 29.885 15.7691C29.9938 14.9434 29.8129 14.1055 29.373 13.3981C28.9332 12.6909 28.2617 12.158 27.473 11.8903C26.6844 11.6225 25.8273 11.6366 25.0478 11.93C24.5514 12.1168 24.1061 12.4096 23.7405 12.7838C23.3932 13.1394 23.5472 13.7007 23.9776 13.9492L24.4342 14.2128C25.1285 14.6138 24.9917 15.6541 24.2171 15.8616L23.7079 15.9981Z" fill="#2DF8BB"/>
<path d="M12.7236 15.9981C13.2037 16.1267 13.4978 16.629 13.2543 17.0623C12.9981 17.5184 12.6437 17.9165 12.2126 18.2255C11.5356 18.7106 10.7113 18.946 9.88022 18.8915C9.04909 18.837 8.26259 18.4961 7.6547 17.9268C7.04681 17.3574 6.65514 16.5949 6.54643 15.7691C6.43772 14.9434 6.61868 14.1055 7.0585 13.3981C7.49832 12.6909 8.16977 12.158 8.95845 11.8903C9.74711 11.6225 10.6043 11.6366 11.3838 11.93C11.8801 12.1168 12.3255 12.4096 12.6911 12.7838C13.0384 13.1394 12.8843 13.7007 12.4539 13.9492L11.9973 14.2128C11.3029 14.6138 11.4399 15.6541 12.2144 15.8616L12.7236 15.9981Z" fill="#2DF8BB"/>
</svg>
