<svg width="221" height="36" viewBox="0 0 221 36" fill="none" xmlns="http://www.w3.org/2000/svg">
<path d="M33.9239 28.2501H45.3279L17.0779 0H5.67383L33.9239 28.2501Z" fill="#7476ED"/>
<path d="M22.9355 1.44531e-06L50.1681 27.2325V0H42.7985V8.59782L34.2006 0L22.9355 1.44531e-06Z" fill="#E56F8C"/>
<path d="M0.898438 0.945312V28.2496H8.26802V19.6517L16.8658 28.2496H28.2027L0.898438 0.945312Z" fill="#64C2DB"/>
<path d="M67.9529 24.0018H74.556V27.8929H62.9121V7.19922H67.9529V24.0018Z" fill="#EAEAEA"/>
<path d="M83.562 28.1296C81.9505 28.1296 80.4962 27.7857 79.1992 27.0977C77.9217 26.4099 76.9097 25.4273 76.1629 24.15C75.4358 22.8725 75.0723 21.379 75.0723 19.6692C75.0723 17.9792 75.4455 16.4954 76.1924 15.2181C76.9392 13.9209 77.9611 12.9285 79.2581 12.2407C80.5552 11.5529 82.0094 11.209 83.6209 11.209C85.2324 11.209 86.6866 11.5529 87.9838 12.2407C89.2808 12.9285 90.3026 13.9209 91.0495 15.2181C91.7963 16.4954 92.1696 17.9792 92.1696 19.6692C92.1696 21.3593 91.7865 22.8529 91.0199 24.15C90.2732 25.4273 89.2414 26.4099 87.9247 27.0977C86.6277 27.7857 85.1734 28.1296 83.562 28.1296ZM83.562 23.7667C84.525 23.7667 85.3406 23.413 86.0087 22.7055C86.6965 21.998 87.0404 20.986 87.0404 19.6692C87.0404 18.3525 86.7063 17.3405 86.0382 16.633C85.3896 15.9255 84.5839 15.5718 83.6209 15.5718C82.6383 15.5718 81.8227 15.9255 81.1743 16.633C80.5257 17.3208 80.2015 18.333 80.2015 19.6692C80.2015 20.986 80.5159 21.998 81.1447 22.7055C81.7933 23.413 82.5991 23.7667 83.562 23.7667Z" fill="#EAEAEA"/>
<path d="M100.209 11.209C101.368 11.209 102.38 11.4448 103.245 11.9165C104.129 12.3881 104.807 13.0072 105.279 13.7736V11.4448H110.32V27.8643C110.32 29.3775 110.015 30.7433 109.406 31.9617C108.816 33.1998 107.903 34.1824 106.664 34.9095C105.446 35.6367 103.923 36.0003 102.095 36.0003C99.6584 36.0003 97.6835 35.4205 96.1702 34.261C94.657 33.1212 93.7923 31.5687 93.5761 29.6034H98.558C98.7151 30.2323 99.0886 30.7236 99.6781 31.0773C100.268 31.4507 100.995 31.6374 101.86 31.6374C102.901 31.6374 103.726 31.3329 104.336 30.7236C104.965 30.1341 105.279 29.181 105.279 27.8643V25.5354C104.788 26.3018 104.11 26.9307 103.245 27.4221C102.38 27.8937 101.368 28.1296 100.209 28.1296C98.8528 28.1296 97.6244 27.7857 96.524 27.0977C95.4234 26.3903 94.5489 25.3979 93.9004 24.1205C93.2715 22.8235 92.957 21.3299 92.957 19.6398C92.957 17.9497 93.2715 16.466 93.9004 15.1885C94.5489 13.9112 95.4234 12.9285 96.524 12.2407C97.6244 11.5529 98.8528 11.209 100.209 11.209ZM105.279 19.6692C105.279 18.4116 104.925 17.4191 104.218 16.6919C103.53 15.9648 102.685 15.6012 101.683 15.6012C100.68 15.6012 99.8256 15.9648 99.1181 16.6919C98.4302 17.3994 98.0863 18.382 98.0863 19.6398C98.0863 20.8976 98.4302 21.8998 99.1181 22.6466C99.8256 23.3738 100.68 23.7372 101.683 23.7372C102.685 23.7372 103.53 23.3738 104.218 22.6466C104.925 21.9194 105.279 20.927 105.279 19.6692Z" fill="#EAEAEA"/>
<path d="M120.57 28.1296C118.958 28.1296 117.504 27.7857 116.207 27.0977C114.93 26.4099 113.918 25.4273 113.171 24.15C112.444 22.8725 112.08 21.379 112.08 19.6692C112.08 17.9792 112.454 16.4954 113.2 15.2181C113.947 13.9209 114.969 12.9285 116.266 12.2407C117.563 11.5529 119.017 11.209 120.629 11.209C122.24 11.209 123.695 11.5529 124.992 12.2407C126.289 12.9285 127.311 13.9209 128.057 15.2181C128.804 16.4954 129.178 17.9792 129.178 19.6692C129.178 21.3593 128.794 22.8529 128.028 24.15C127.281 25.4273 126.249 26.4099 124.933 27.0977C123.636 27.7857 122.181 28.1296 120.57 28.1296ZM120.57 23.7667C121.533 23.7667 122.348 23.413 123.016 22.7055C123.704 21.998 124.048 20.986 124.048 19.6692C124.048 18.3525 123.714 17.3405 123.046 16.633C122.397 15.9255 121.592 15.5718 120.629 15.5718C119.646 15.5718 118.831 15.9255 118.182 16.633C117.534 17.3208 117.209 18.333 117.209 19.6692C117.209 20.986 117.524 21.998 118.153 22.7055C118.801 23.413 119.607 23.7667 120.57 23.7667Z" fill="#EAEAEA"/>
<path d="M133.505 9.73475C132.62 9.73475 131.893 9.47926 131.323 8.9683C130.773 8.43769 130.498 7.78918 130.498 7.02273C130.498 6.23665 130.773 5.58812 131.323 5.07716C131.893 4.54656 132.62 4.28125 133.505 4.28125C134.37 4.28125 135.077 4.54656 135.627 5.07716C136.197 5.58812 136.482 6.23665 136.482 7.02273C136.482 7.78918 136.197 8.43769 135.627 8.9683C135.077 9.47926 134.37 9.73475 133.505 9.73475ZM136.01 11.4445V27.8933H130.97V11.4445H136.01Z" fill="#EAEAEA"/>
<path d="M143.818 13.7736C144.31 13.0072 144.987 12.3881 145.852 11.9165C146.716 11.4448 147.729 11.209 148.889 11.209C150.245 11.209 151.473 11.5529 152.573 12.2407C153.674 12.9285 154.538 13.9112 155.167 15.1885C155.816 16.466 156.14 17.9497 156.14 19.6398C156.14 21.3299 155.816 22.8235 155.167 24.1205C154.538 25.3979 153.674 26.3903 152.573 27.0977C151.473 27.7857 150.245 28.1296 148.889 28.1296C147.749 28.1296 146.736 27.8937 145.852 27.4221C144.987 26.9504 144.31 26.3412 143.818 25.5943V35.735H138.777V11.4448H143.818V13.7736ZM151.011 19.6398C151.011 18.382 150.657 17.3994 149.95 16.6919C149.262 15.9648 148.406 15.6012 147.385 15.6012C146.382 15.6012 145.528 15.9648 144.821 16.6919C144.133 17.4191 143.789 18.4116 143.789 19.6692C143.789 20.927 144.133 21.9194 144.821 22.6466C145.528 23.3738 146.382 23.7372 147.385 23.7372C148.388 23.7372 149.242 23.3738 149.95 22.6466C150.657 21.8998 151.011 20.8976 151.011 19.6398Z" fill="#EAEAEA"/>
<path d="M164.591 28.1296C163.156 28.1296 161.88 27.884 160.76 27.3926C159.639 26.9013 158.754 26.2331 158.107 25.3881C157.458 24.5234 157.094 23.5603 157.016 22.4991H161.998C162.056 23.0691 162.322 23.531 162.794 23.8847C163.265 24.2384 163.845 24.4153 164.533 24.4153C165.162 24.4153 165.642 24.2973 165.978 24.0616C166.331 23.8061 166.508 23.4817 166.508 23.0888C166.508 22.6171 166.261 22.2732 165.771 22.0569C165.279 21.8212 164.483 21.5657 163.383 21.2906C162.203 21.0154 161.221 20.7304 160.435 20.4357C159.649 20.1212 158.971 19.6398 158.401 18.9912C157.832 18.3231 157.546 17.4289 157.546 16.3087C157.546 15.3654 157.802 14.5106 158.312 13.7441C158.843 12.958 159.61 12.339 160.612 11.887C161.634 11.435 162.842 11.209 164.237 11.209C166.301 11.209 167.923 11.7199 169.101 12.7419C170.301 13.7637 170.988 15.1198 171.165 16.8099H166.508C166.428 16.2399 166.173 15.7879 165.741 15.4538C165.329 15.1198 164.778 14.9528 164.09 14.9528C163.501 14.9528 163.049 15.0706 162.734 15.3065C162.42 15.5226 162.263 15.8273 162.263 16.2202C162.263 16.6919 162.509 17.0457 162.999 17.2815C163.51 17.5174 164.297 17.7532 165.358 17.9889C166.577 18.3035 167.569 18.6178 168.335 18.9323C169.101 19.227 169.77 19.7184 170.339 20.4062C170.93 21.0745 171.234 21.9784 171.254 23.1182C171.254 24.0812 170.978 24.9459 170.428 25.7123C169.897 26.4592 169.121 27.0487 168.1 27.481C167.097 27.9133 165.928 28.1296 164.591 28.1296Z" fill="#EAEAEA"/>
<path d="M189.694 11.4453V27.8942H184.653V25.6539C184.142 26.3811 183.445 26.9706 182.56 27.4226C181.696 27.8549 180.733 28.071 179.672 28.071C178.414 28.071 177.303 27.796 176.34 27.2457C175.377 26.6758 174.631 25.8602 174.101 24.7989C173.57 23.7377 173.305 22.4899 173.305 21.0553V11.4453H178.316V20.3772C178.316 21.4778 178.601 22.3326 179.17 22.9418C179.74 23.5511 180.506 23.8557 181.469 23.8557C182.452 23.8557 183.228 23.5511 183.798 22.9418C184.369 22.3326 184.653 21.4778 184.653 20.3772V11.4453H189.694Z" fill="#EAEAEA"/>
<path d="M213.421 11.2677C215.465 11.2677 217.087 11.8867 218.285 13.1248C219.505 14.3629 220.114 16.0825 220.114 18.2835V27.8934H215.101V18.9615C215.101 17.9003 214.818 17.0848 214.247 16.5148C213.696 15.9253 212.931 15.6305 211.948 15.6305C210.965 15.6305 210.189 15.9253 209.618 16.5148C209.069 17.0848 208.794 17.9003 208.794 18.9615V27.8934H203.782V18.9615C203.782 17.9003 203.498 17.0848 202.927 16.5148C202.377 15.9253 201.611 15.6305 200.628 15.6305C199.645 15.6305 198.869 15.9253 198.299 16.5148C197.75 17.0848 197.474 17.9003 197.474 18.9615V27.8934H192.434V11.4446H197.474V13.508C197.985 12.8202 198.653 12.2798 199.478 11.8867C200.304 11.4741 201.237 11.2677 202.278 11.2677C203.516 11.2677 204.618 11.533 205.58 12.0636C206.563 12.5942 207.329 13.3509 207.88 14.3335C208.45 13.4295 209.226 12.6925 210.209 12.1226C211.192 11.5527 212.263 11.2677 213.421 11.2677Z" fill="#EAEAEA"/>
</svg>
