<svg width="199" height="36" viewBox="0 0 199 36" fill="none" xmlns="http://www.w3.org/2000/svg">
<path d="M14.1257 30.5531C10.3191 34.3598 3.87218 34.3446 2.07172 29.2713C1.71921 28.278 1.43737 27.2566 1.23008 26.2145C0.383709 21.9594 0.818098 17.5491 2.47832 13.5409C4.13854 9.53281 6.95002 6.10701 10.5572 3.69674C14.1645 1.28647 18.4055 -1.85839e-07 22.7438 0C27.0821 1.85839e-07 31.3231 1.28647 34.9303 3.69674C38.5375 6.10701 41.349 9.53281 43.0092 13.541C44.6694 17.5491 45.1038 21.9594 44.2575 26.2145C44.0502 27.2566 43.7683 28.278 43.4157 29.2713C41.6153 34.3446 35.1684 34.3598 31.3617 30.5531L25.4857 24.6771C24.9243 24.1157 24.9823 23.1898 25.1371 22.4112C25.2312 21.9379 25.1829 21.4472 24.9982 21.0013C24.8135 20.5554 24.5008 20.1743 24.0995 19.9062C23.6982 19.6381 23.2264 19.495 22.7438 19.495C22.2612 19.495 21.7894 19.6381 21.3881 19.9062C20.9867 20.1743 20.674 20.5554 20.4893 21.0013C20.3046 21.4472 20.2563 21.9379 20.3505 22.4112C20.5053 23.1898 20.5632 24.1157 20.0018 24.6771L14.1257 30.5531Z" fill="url(#paint0_linear_1_7619)"/>
<path d="M62.5246 25.2867H68.4207V28.7613H58.0234V10.2831H62.5246V25.2867Z" fill="#EAEAEA"/>
<path d="M76.4636 28.9722C75.0247 28.9722 73.7261 28.6651 72.5679 28.051C71.4273 27.4368 70.5235 26.5594 69.8567 25.4187C69.2075 24.2781 68.8828 22.9445 68.8828 21.4177C68.8828 19.9086 69.2162 18.5837 69.883 17.443C70.5499 16.2849 71.4624 15.3987 72.6205 14.7845C73.7787 14.1704 75.0773 13.8633 76.5163 13.8633C77.9552 13.8633 79.2538 14.1704 80.4119 14.7845C81.5701 15.3987 82.4826 16.2849 83.1494 17.443C83.8162 18.5837 84.1497 19.9086 84.1497 21.4177C84.1497 22.9269 83.8074 24.2605 83.1231 25.4187C82.4563 26.5594 81.5351 27.4368 80.3592 28.051C79.2011 28.6651 77.9025 28.9722 76.4636 28.9722ZM76.4636 25.0765C77.3234 25.0765 78.0517 24.7607 78.6484 24.1289C79.2626 23.4972 79.5697 22.5935 79.5697 21.4177C79.5697 20.242 79.2712 19.3383 78.6747 18.7066C78.0955 18.0748 77.3761 17.7589 76.5163 17.7589C75.6388 17.7589 74.9106 18.0748 74.3315 18.7066C73.7523 19.3207 73.4629 20.2244 73.4629 21.4177C73.4629 22.5935 73.7437 23.4972 74.3052 24.1289C74.8843 24.7607 75.6038 25.0765 76.4636 25.0765Z" fill="#EAEAEA"/>
<path d="M91.3268 13.8633C92.3621 13.8633 93.2659 14.0739 94.038 14.495C94.8276 14.9161 95.4331 15.469 95.8543 16.1532V14.0739H100.355V28.7352C100.355 30.0865 100.083 31.3062 99.5393 32.394C99.0128 33.4996 98.1969 34.377 97.0914 35.0262C96.0034 35.6756 94.6434 36.0003 93.0115 36.0003C90.8355 36.0003 89.0719 35.4826 87.7206 34.4473C86.3695 33.4294 85.5973 32.0431 85.4043 30.2883H89.8528C89.9931 30.8498 90.3266 31.2886 90.8531 31.6044C91.3794 31.9378 92.0288 32.1045 92.8009 32.1045C93.7309 32.1045 94.4679 31.8325 95.0119 31.2886C95.5735 30.7621 95.8543 29.9111 95.8543 28.7352V26.6559C95.4155 27.3402 94.8101 27.9018 94.038 28.3405C93.2659 28.7616 92.3621 28.9722 91.3268 28.9722C90.116 28.9722 89.0192 28.6651 88.0365 28.051C87.0538 27.4192 86.2729 26.533 85.6939 25.3923C85.1324 24.2342 84.8516 22.9006 84.8516 21.3914C84.8516 19.8823 85.1324 18.5574 85.6939 17.4168C86.2729 16.2761 87.0538 15.3987 88.0365 14.7845C89.0192 14.1704 90.116 13.8633 91.3268 13.8633ZM95.8543 21.4177C95.8543 20.2946 95.5384 19.4084 94.9066 18.7592C94.2925 18.11 93.5378 17.7853 92.6429 17.7853C91.7479 17.7853 90.9846 18.11 90.3529 18.7592C89.7387 19.391 89.4316 20.2684 89.4316 21.3914C89.4316 22.5145 89.7387 23.4095 90.3529 24.0763C90.9846 24.7255 91.7479 25.0502 92.6429 25.0502C93.5378 25.0502 94.2925 24.7255 94.9066 24.0763C95.5384 23.4269 95.8543 22.5409 95.8543 21.4177Z" fill="#EAEAEA"/>
<path d="M109.51 28.9722C108.072 28.9722 106.773 28.6651 105.615 28.051C104.474 27.4368 103.57 26.5594 102.904 25.4187C102.254 24.2781 101.93 22.9445 101.93 21.4177C101.93 19.9086 102.263 18.5837 102.93 17.443C103.597 16.2849 104.509 15.3987 105.667 14.7845C106.826 14.1704 108.124 13.8633 109.563 13.8633C111.002 13.8633 112.301 14.1704 113.459 14.7845C114.617 15.3987 115.529 16.2849 116.196 17.443C116.863 18.5837 117.197 19.9086 117.197 21.4177C117.197 22.9269 116.854 24.2605 116.17 25.4187C115.503 26.5594 114.582 27.4368 113.406 28.051C112.248 28.6651 110.949 28.9722 109.51 28.9722ZM109.51 25.0765C110.37 25.0765 111.099 24.7607 111.695 24.1289C112.309 23.4972 112.617 22.5935 112.617 21.4177C112.617 20.242 112.318 19.3383 111.722 18.7066C111.142 18.0748 110.423 17.7589 109.563 17.7589C108.686 17.7589 107.957 18.0748 107.378 18.7066C106.799 19.3207 106.51 20.2244 106.51 21.4177C106.51 22.5935 106.791 23.4972 107.352 24.1289C107.931 24.7607 108.651 25.0765 109.51 25.0765Z" fill="#EAEAEA"/>
<path d="M121.06 12.5473C120.27 12.5473 119.621 12.3192 119.112 11.863C118.621 11.3892 118.375 10.8101 118.375 10.1257C118.375 9.42378 118.621 8.84469 119.112 8.38843C119.621 7.91463 120.27 7.67773 121.06 7.67773C121.832 7.67773 122.464 7.91463 122.955 8.38843C123.464 8.84469 123.718 9.42378 123.718 10.1257C123.718 10.8101 123.464 11.3892 122.955 11.863C122.464 12.3192 121.832 12.5473 121.06 12.5473ZM123.297 14.0741V28.7618H118.796V14.0741H123.297Z" fill="#EAEAEA"/>
<path d="M130.266 16.1532C130.705 15.469 131.31 14.9161 132.083 14.495C132.855 14.0739 133.759 13.8633 134.794 13.8633C136.005 13.8633 137.102 14.1704 138.084 14.7845C139.067 15.3987 139.84 16.2761 140.401 17.4168C140.979 18.5574 141.27 19.8823 141.27 21.3914C141.27 22.9006 140.979 24.2342 140.401 25.3923C139.84 26.533 139.067 27.4192 138.084 28.051C137.102 28.6651 136.005 28.9722 134.794 28.9722C133.776 28.9722 132.873 28.7616 132.083 28.3405C131.31 27.9193 130.705 27.3753 130.266 26.7085V35.7633H125.766V14.0739H130.266V16.1532ZM136.69 21.3914C136.69 20.2684 136.374 19.391 135.741 18.7592C135.127 18.11 134.365 17.7853 133.452 17.7853C132.557 17.7853 131.794 18.11 131.161 18.7592C130.548 19.4084 130.241 20.2946 130.241 21.4177C130.241 22.5409 130.548 23.4269 131.161 24.0763C131.794 24.7255 132.557 25.0502 133.452 25.0502C134.347 25.0502 135.11 24.7255 135.741 24.0763C136.374 23.4095 136.69 22.5145 136.69 21.3914Z" fill="#EAEAEA"/>
<path d="M148.82 28.9722C147.539 28.9722 146.398 28.7528 145.397 28.3142C144.398 27.8754 143.607 27.2788 143.029 26.5242C142.45 25.7521 142.125 24.8923 142.055 23.9446H146.504C146.556 24.4535 146.793 24.8659 147.214 25.1818C147.636 25.4976 148.153 25.6556 148.768 25.6556C149.328 25.6556 149.758 25.5503 150.056 25.3397C150.372 25.1116 150.53 24.822 150.53 24.4711C150.53 24.0499 150.311 23.7428 149.873 23.5498C149.434 23.3392 148.723 23.1112 147.74 22.8654C146.687 22.6198 145.81 22.3653 145.108 22.1021C144.407 21.8214 143.801 21.3914 143.292 20.8123C142.783 20.2157 142.529 19.4172 142.529 18.4171C142.529 17.5747 142.757 16.8114 143.213 16.127C143.686 15.4251 144.371 14.8722 145.266 14.4687C146.178 14.0651 147.258 13.8633 148.504 13.8633C150.346 13.8633 151.794 14.3195 152.847 15.232C153.917 16.1446 154.532 17.3553 154.69 18.8645H150.53C150.46 18.3556 150.232 17.952 149.846 17.6536C149.478 17.3553 148.987 17.2062 148.372 17.2062C147.846 17.2062 147.442 17.3115 147.161 17.5221C146.881 17.7151 146.741 17.9871 146.741 18.338C146.741 18.7592 146.96 19.0751 147.398 19.2857C147.855 19.4963 148.556 19.7068 149.504 19.9173C150.592 20.1981 151.478 20.479 152.162 20.7597C152.847 21.0229 153.443 21.4615 153.952 22.0758C154.478 22.6724 154.751 23.4796 154.769 24.4975C154.769 25.3573 154.523 26.1294 154.031 26.8138C153.558 27.4806 152.865 28.0071 151.952 28.3931C151.057 28.7792 150.013 28.9722 148.82 28.9722Z" fill="#EAEAEA"/>
<path d="M171.235 14.0742V28.762H166.734V26.7615C166.277 27.4107 165.654 27.9372 164.865 28.3408C164.093 28.7269 163.233 28.9199 162.285 28.9199C161.162 28.9199 160.17 28.6743 159.311 28.1829C158.451 27.674 157.784 26.9457 157.311 25.9982C156.837 25.0506 156.6 23.9363 156.6 22.6552V14.0742H161.074V22.0498C161.074 23.0325 161.329 23.7958 161.838 24.3399C162.346 24.8838 163.031 25.1558 163.891 25.1558C164.768 25.1558 165.462 24.8838 165.97 24.3399C166.479 23.7958 166.734 23.0325 166.734 22.0498V14.0742H171.235Z" fill="#EAEAEA"/>
<path d="M192.421 13.916C194.245 13.916 195.693 14.4687 196.764 15.5743C197.851 16.6798 198.396 18.2152 198.396 20.1806V28.7617H193.921V20.7861C193.921 19.8385 193.666 19.1102 193.158 18.6013C192.666 18.0749 191.983 17.8116 191.104 17.8116C190.227 17.8116 189.534 18.0749 189.025 18.6013C188.534 19.1102 188.288 19.8385 188.288 20.7861V28.7617H183.813V20.7861C183.813 19.8385 183.559 19.1102 183.05 18.6013C182.558 18.0749 181.874 17.8116 180.997 17.8116C180.12 17.8116 179.426 18.0749 178.918 18.6013C178.426 19.1102 178.181 19.8385 178.181 20.7861V28.7617H173.68V14.074H178.181V15.9165C178.637 15.3023 179.234 14.8197 179.971 14.4687C180.707 14.1002 181.541 13.916 182.47 13.916C183.577 13.916 184.56 14.1529 185.419 14.6267C186.296 15.1005 186.98 15.7761 187.472 16.6535C187.981 15.8462 188.675 15.1882 189.552 14.6793C190.429 14.1705 191.386 13.916 192.421 13.916Z" fill="#EAEAEA"/>
<defs>
<linearGradient id="paint0_linear_1_7619" x1="42.6823" y1="10.9676" x2="3.74736" y2="10.9676" gradientUnits="userSpaceOnUse">
<stop stop-color="#64C2DB"/>
<stop offset="0.510417" stop-color="#7476ED"/>
<stop offset="1" stop-color="#E56F8C"/>
</linearGradient>
</defs>
</svg>
