<svg width="155" height="36" viewBox="0 0 155 36" fill="none" xmlns="http://www.w3.org/2000/svg">
<path d="M44.5293 26.1H54.7467V23.1906H47.6449V9.60547H44.5293V26.1Z" fill="#EAEAEA"/>
<path d="M60.887 26.443C62.1241 26.443 63.2123 26.168 64.1516 25.6182C65.0985 25.0607 65.8354 24.2933 66.3623 23.3159C66.8968 22.3308 67.1641 21.1968 67.1641 19.9139C67.1641 18.6386 66.9006 17.5123 66.3738 16.5348C65.8468 15.5497 65.1099 14.7784 64.163 14.221C63.2238 13.6635 62.1318 13.3848 60.887 13.3848C59.6652 13.3848 58.5846 13.6597 57.6454 14.2095C56.7061 14.7593 55.9692 15.5268 55.4346 16.5119C54.9001 17.4893 54.6328 18.6233 54.6328 19.9139C54.6328 21.1891 54.8925 22.3193 55.4118 23.3044C55.9386 24.2819 56.6718 25.0493 57.611 25.6068C58.5503 26.1642 59.6423 26.443 60.887 26.443ZM60.887 23.5335C59.9172 23.5335 59.1803 23.209 58.6763 22.5599C58.1799 21.9032 57.9318 21.0212 57.9318 19.9139C57.9318 18.8371 58.1685 17.9666 58.642 17.3022C59.123 16.6303 59.8714 16.2942 60.887 16.2942C61.8721 16.2942 62.6128 16.6226 63.1092 17.2793C63.6132 17.9361 63.8652 18.8142 63.8652 19.9139C63.8652 20.9754 63.6171 21.8458 63.1206 22.5255C62.6319 23.1975 61.8874 23.5335 60.887 23.5335Z" fill="#EAEAEA"/>
<path d="M73.3254 26.443C73.9058 26.443 74.4403 26.3742 74.9291 26.2368C75.4254 26.0993 75.876 25.9046 76.2807 25.6526V26.9011C76.296 27.3593 76.1776 27.7411 75.9256 28.0466C75.6812 28.3597 75.3529 28.5926 74.9405 28.7453C74.5281 28.9057 74.089 28.9859 73.6233 28.9859C73.188 28.9859 72.7832 28.8904 72.4091 28.6995C72.0425 28.5086 71.7599 28.2299 71.5614 27.8633L68.6749 29.2608C69.1483 30.0626 69.8241 30.7079 70.7023 31.1966C71.5806 31.6929 72.5465 31.9411 73.6003 31.9411C74.5091 31.9411 75.3529 31.8189 76.1318 31.5746C76.9107 31.3379 77.5674 30.9752 78.102 30.4864C78.6441 29.9977 79.0146 29.3753 79.2131 28.6193C79.2818 28.352 79.3276 28.081 79.3505 27.806C79.381 27.5388 79.3963 27.2524 79.3963 26.947V13.7284H76.6701V14.4157C76.2501 14.0873 75.7728 13.8353 75.2383 13.6597C74.7114 13.4764 74.1273 13.3848 73.4858 13.3848C72.3022 13.3848 71.2712 13.6674 70.3931 14.2324C69.5149 14.7975 68.8314 15.5726 68.3427 16.5577C67.8616 17.5351 67.6211 18.6539 67.6211 19.9139C67.6211 21.151 67.8578 22.262 68.3313 23.2471C68.8123 24.2322 69.4805 25.0111 70.3358 25.5839C71.191 26.1566 72.1876 26.443 73.3254 26.443ZM73.8294 23.671C73.1574 23.671 72.6076 23.5029 72.18 23.167C71.7524 22.831 71.4354 22.3804 71.2293 21.8153C71.0231 21.2426 70.92 20.6088 70.92 19.9139C70.92 19.2266 71.0269 18.6004 71.2407 18.0353C71.4546 17.4626 71.7829 17.0083 72.2258 16.6722C72.6763 16.3286 73.2491 16.1568 73.944 16.1568C74.9214 16.1568 75.6201 16.5043 76.0401 17.1991C76.4602 17.8864 76.6701 18.7913 76.6701 19.9139C76.6701 21.0364 76.4563 21.9451 76.0287 22.64C75.6087 23.3273 74.8756 23.671 73.8294 23.671Z" fill="#EAEAEA"/>
<path d="M86.7972 26.443C88.0343 26.443 89.1225 26.168 90.0617 25.6182C91.0084 25.0607 91.7455 24.2933 92.272 23.3159C92.8066 22.3308 93.0739 21.1968 93.0739 19.9139C93.0739 18.6386 92.8111 17.5123 92.2837 16.5348C91.7572 15.5497 91.0201 14.7784 90.0732 14.221C89.1339 13.6635 88.0419 13.3848 86.7972 13.3848C85.5753 13.3848 84.4948 13.6597 83.5555 14.2095C82.6163 14.7593 81.8794 15.5268 81.3448 16.5119C80.8103 17.4893 80.543 18.6233 80.543 19.9139C80.543 21.1891 80.8026 22.3193 81.3219 23.3044C81.8488 24.2819 82.5819 25.0493 83.5212 25.6068C84.4605 26.1642 85.5525 26.443 86.7972 26.443ZM86.7972 23.5335C85.8273 23.5335 85.0904 23.209 84.5864 22.5599C84.0901 21.9032 83.8419 21.0212 83.8419 19.9139C83.8419 18.8371 84.0786 17.9666 84.5521 17.3022C85.0332 16.6303 85.7815 16.2942 86.7972 16.2942C87.7823 16.2942 88.523 16.6226 89.0194 17.2793C89.5234 17.9361 89.7753 18.8142 89.7753 19.9139C89.7753 20.9754 89.5271 21.8458 89.0308 22.5255C88.5421 23.1975 87.7975 23.5335 86.7972 23.5335Z" fill="#EAEAEA"/>
<path d="M94.4473 12.0109H97.5631V9.26184H94.4473V12.0109ZM94.4473 26.1H97.5631V13.7291H94.4473V26.1Z" fill="#EAEAEA"/>
<path d="M99.5996 31.5975H102.738V25.6526C103.143 25.9046 103.589 26.0993 104.078 26.2368C104.575 26.3742 105.113 26.443 105.694 26.443C106.831 26.443 107.828 26.1566 108.683 25.5839C109.538 25.0111 110.203 24.2322 110.676 23.2471C111.157 22.262 111.398 21.151 111.398 19.9139C111.398 18.6539 111.154 17.5351 110.665 16.5577C110.184 15.5726 109.504 14.7975 108.626 14.2324C107.747 13.6674 106.717 13.3848 105.533 13.3848C104.892 13.3848 104.304 13.4764 103.769 13.6597C103.242 13.8353 102.769 14.0873 102.349 14.4157V13.7284H99.5996V31.5975ZM105.19 23.671C104.151 23.671 103.418 23.3273 102.99 22.64C102.562 21.9451 102.349 21.0364 102.349 19.9139C102.349 18.7913 102.559 17.8864 102.979 17.1991C103.407 16.5043 104.105 16.1568 105.075 16.1568C105.77 16.1568 106.339 16.3286 106.782 16.6722C107.233 17.0083 107.565 17.4626 107.778 18.0353C107.992 18.6004 108.099 19.2266 108.099 19.9139C108.099 20.6088 107.996 21.2426 107.79 21.8153C107.584 22.3804 107.267 22.831 106.839 23.167C106.412 23.5029 105.862 23.671 105.19 23.671Z" fill="#EAEAEA"/>
<path d="M117.041 26.443C118.659 26.443 119.927 26.0803 120.844 25.3548C121.76 24.6293 122.218 23.6328 122.218 22.3651C122.218 21.403 121.92 20.6432 121.325 20.0857C120.736 19.5283 119.737 19.0662 118.324 18.6997C117.361 18.4553 116.643 18.2567 116.17 18.104C115.705 17.9514 115.395 17.8024 115.242 17.6573C115.097 17.5123 115.025 17.3328 115.025 17.119C115.025 16.76 115.196 16.4852 115.54 16.2942C115.892 16.1033 116.353 16.027 116.926 16.0651C118.14 16.1568 118.805 16.6761 118.919 17.623L122.104 17.0502C121.943 15.9277 121.393 15.0381 120.454 14.3813C119.515 13.717 118.316 13.3848 116.857 13.3848C115.361 13.3848 114.166 13.736 113.272 14.4386C112.379 15.1411 111.932 16.088 111.932 17.2793C111.932 18.2262 112.241 18.9746 112.86 19.5244C113.478 20.0666 114.544 20.5324 116.056 20.9219C116.949 21.1586 117.605 21.3495 118.026 21.4946C118.453 21.6397 118.729 21.7886 118.85 21.9413C118.972 22.0864 119.034 22.2812 119.034 22.5255C119.034 22.915 118.881 23.2204 118.576 23.4419C118.27 23.6557 117.835 23.7626 117.27 23.7626C116.582 23.7626 116.013 23.5984 115.563 23.27C115.12 22.9417 114.833 22.4874 114.704 21.907L111.52 22.388C111.726 23.6786 112.306 24.679 113.261 25.3891C114.223 26.0917 115.483 26.443 117.041 26.443Z" fill="#EAEAEA"/>
<path d="M127.967 26.466C128.86 26.466 129.639 26.3171 130.304 26.0193C130.968 25.7215 131.525 25.3244 131.976 24.828V26.0995H134.725V13.7285H131.587V20.0057C131.587 20.7693 131.498 21.3878 131.323 21.8613C131.155 22.3271 130.938 22.6822 130.67 22.9265C130.403 23.1633 130.117 23.3236 129.811 23.4077C129.506 23.4916 129.22 23.5337 128.952 23.5337C128.288 23.5337 127.772 23.3847 127.406 23.0869C127.047 22.7891 126.787 22.4187 126.627 21.9758C126.466 21.5329 126.371 21.0938 126.34 20.6585C126.31 20.2156 126.295 19.8529 126.295 19.5703V13.7285H123.133V20.67C123.133 20.8761 123.148 21.2045 123.179 21.6551C123.209 22.1056 123.298 22.6058 123.442 23.1557C123.587 23.6978 123.828 24.2209 124.164 24.7249C124.508 25.2289 124.985 25.6451 125.596 25.9735C126.206 26.3018 126.997 26.466 127.967 26.466Z" fill="#EAEAEA"/>
<path d="M136.529 26.1004H139.668V18.6091C139.668 17.899 139.862 17.3224 140.252 16.8795C140.649 16.4289 141.172 16.2036 141.821 16.2036C142.501 16.2036 143.032 16.4328 143.413 16.891C143.802 17.3415 143.998 17.9753 143.998 18.7924V26.1004H147.113V18.6091C147.113 17.899 147.308 17.3224 147.697 16.8795C148.094 16.4289 148.617 16.2036 149.266 16.2036C149.947 16.2036 150.477 16.4328 150.858 16.891C151.248 17.3415 151.443 17.9753 151.443 18.7924V26.1004H154.558V17.9676C154.558 16.616 154.195 15.5241 153.47 14.6916C152.753 13.8517 151.687 13.4316 150.274 13.4316C149.48 13.4316 148.751 13.6035 148.086 13.9471C147.422 14.2908 146.892 14.7604 146.494 15.356C146.174 14.7757 145.716 14.3099 145.12 13.9586C144.524 13.6073 143.783 13.4316 142.898 13.4316C142.149 13.4316 141.462 13.5806 140.836 13.8784C140.209 14.1686 139.69 14.5695 139.278 15.0811V13.7295H136.529V26.1004Z" fill="#EAEAEA"/>
<path d="M18.3965 0C8.45535 0 0.396484 8.05887 0.396484 18C10.3376 18 18.3965 9.94113 18.3965 0Z" fill="#45D2B0"/>
<path d="M18.3965 36C28.3376 36 36.3965 27.9411 36.3965 18C26.4554 18 18.3965 26.0589 18.3965 36Z" fill="#45D2B0"/>
<path d="M18.3965 0C28.3376 0 36.3965 8.05887 36.3965 18C26.4554 18 18.3965 9.94113 18.3965 0Z" fill="#3F3D75"/>
<path d="M18.3965 36C8.45535 36 0.396484 27.9411 0.396484 18C10.3376 18 18.3965 26.0589 18.3965 36Z" fill="#3F3D75"/>
</svg>
