<svg width="187" height="36" viewBox="0 0 187 36" fill="none" xmlns="http://www.w3.org/2000/svg">
<path d="M56.3398 28.1242V9.22461H59.9037V24.8843H68.5435V28.1242H56.3398Z" fill="#EAEAEA"/>
<path d="M76.2386 28.5032C74.9066 28.5032 73.7096 28.2332 72.6477 27.6932C71.5856 27.1532 70.7487 26.3702 70.1367 25.3443C69.5247 24.3183 69.2188 23.0853 69.2188 21.6453V21.2133C69.2188 19.7733 69.5247 18.5404 70.1367 17.5144C70.7487 16.4884 71.5856 15.7054 72.6477 15.1654C73.7096 14.6255 74.9066 14.3555 76.2386 14.3555C77.5705 14.3555 78.7676 14.6255 79.8295 15.1654C80.8915 15.7054 81.7284 16.4884 82.3405 17.5144C82.9525 18.5404 83.2584 19.7733 83.2584 21.2133V21.6453C83.2584 23.0853 82.9525 24.3183 82.3405 25.3443C81.7284 26.3702 80.8915 27.1532 79.8295 27.6932C78.7676 28.2332 77.5705 28.5032 76.2386 28.5032ZM76.2386 25.4792C77.2826 25.4792 78.1465 25.1462 78.8306 24.4803C79.5145 23.7963 79.8565 22.8242 79.8565 21.5643V21.2943C79.8565 20.0343 79.5145 19.0713 78.8306 18.4053C78.1645 17.7214 77.3005 17.3793 76.2386 17.3793C75.1946 17.3793 74.3306 17.7214 73.6466 18.4053C72.9626 19.0713 72.6206 20.0343 72.6206 21.2943V21.5643C72.6206 22.8242 72.9626 23.7963 73.6466 24.4803C74.3306 25.1462 75.1946 25.4792 76.2386 25.4792Z" fill="#EAEAEA"/>
<path d="M84.5332 21.4833V21.0513C84.5332 19.6473 84.8121 18.4503 85.3702 17.4603C85.9282 16.4524 86.6661 15.6874 87.5841 15.1654C88.5201 14.6255 89.5371 14.3555 90.6351 14.3555C91.859 14.3555 92.786 14.5714 93.416 15.0034C94.046 15.4354 94.505 15.8854 94.793 16.3533H95.279V14.7334H98.627V30.5011C98.627 31.4191 98.357 32.1481 97.8169 32.6881C97.2769 33.2461 96.557 33.525 95.657 33.525H86.6932V30.5551H94.469C94.973 30.5551 95.225 30.2851 95.225 29.7451V26.2622H94.739C94.559 26.5502 94.307 26.8471 93.983 27.1532C93.6591 27.4411 93.2271 27.6842 92.6871 27.8822C92.147 28.0801 91.4631 28.1792 90.6351 28.1792C89.5371 28.1792 88.5201 27.9181 87.5841 27.3962C86.6661 26.8562 85.9282 26.0912 85.3702 25.1012C84.8121 24.0933 84.5332 22.8872 84.5332 21.4833ZM91.6071 25.2092C92.6511 25.2092 93.524 24.8762 94.226 24.2103C94.928 23.5442 95.279 22.6083 95.279 21.4023V21.1323C95.279 19.9083 94.928 18.9724 94.226 18.3243C93.542 17.6584 92.6691 17.3254 91.6071 17.3254C90.563 17.3254 89.6901 17.6584 88.9881 18.3243C88.2861 18.9724 87.9351 19.9083 87.9351 21.1323V21.4023C87.9351 22.6083 88.2861 23.5442 88.9881 24.2103C89.6901 24.8762 90.563 25.2092 91.6071 25.2092Z" fill="#EAEAEA"/>
<path d="M107.559 28.5032C106.227 28.5032 105.03 28.2332 103.968 27.6932C102.906 27.1532 102.069 26.3702 101.457 25.3443C100.845 24.3183 100.539 23.0853 100.539 21.6453V21.2133C100.539 19.7733 100.845 18.5404 101.457 17.5144C102.069 16.4884 102.906 15.7054 103.968 15.1654C105.03 14.6255 106.227 14.3555 107.559 14.3555C108.891 14.3555 110.088 14.6255 111.15 15.1654C112.212 15.7054 113.049 16.4884 113.661 17.5144C114.273 18.5404 114.579 19.7733 114.579 21.2133V21.6453C114.579 23.0853 114.273 24.3183 113.661 25.3443C113.049 26.3702 112.212 27.1532 111.15 27.6932C110.088 28.2332 108.891 28.5032 107.559 28.5032ZM107.559 25.4792C108.603 25.4792 109.467 25.1462 110.151 24.4803C110.835 23.7963 111.177 22.8242 111.177 21.5643V21.2943C111.177 20.0343 110.835 19.0713 110.151 18.4053C109.485 17.7214 108.621 17.3793 107.559 17.3793C106.515 17.3793 105.651 17.7214 104.967 18.4053C104.283 19.0713 103.941 20.0343 103.941 21.2943V21.5643C103.941 22.8242 104.283 23.7963 104.967 24.4803C105.651 25.1462 106.515 25.4792 107.559 25.4792Z" fill="#EAEAEA"/>
<path d="M116.504 28.1253V14.7335H119.906V28.1253H116.504ZM118.205 13.1676C117.592 13.1676 117.071 12.9696 116.638 12.5735C116.225 12.1776 116.018 11.6556 116.018 11.0076C116.018 10.3596 116.225 9.83764 116.638 9.44165C117.071 9.04566 117.592 8.84766 118.205 8.84766C118.835 8.84766 119.357 9.04566 119.77 9.44165C120.184 9.83764 120.392 10.3596 120.392 11.0076C120.392 11.6556 120.184 12.1776 119.77 12.5735C119.357 12.9696 118.835 13.1676 118.205 13.1676Z" fill="#EAEAEA"/>
<path d="M122.461 33.525V14.7334H125.809V16.3533H126.295C126.6 15.8314 127.077 15.3724 127.725 14.9764C128.373 14.5625 129.3 14.3555 130.507 14.3555C131.586 14.3555 132.585 14.6255 133.503 15.1654C134.422 15.6874 135.16 16.4614 135.717 17.4874C136.275 18.5133 136.554 19.7554 136.554 21.2133V21.6453C136.554 23.1033 136.275 24.3452 135.717 25.3712C135.16 26.3972 134.422 27.1802 133.503 27.7202C132.585 28.2421 131.586 28.5032 130.507 28.5032C129.697 28.5032 129.012 28.4042 128.454 28.2061C127.915 28.0262 127.474 27.7921 127.131 27.5041C126.808 27.1981 126.547 26.8922 126.348 26.5862H125.862V33.525H122.461ZM129.48 25.5332C130.543 25.5332 131.415 25.2003 132.099 24.5342C132.801 23.8502 133.152 22.8603 133.152 21.5643V21.2943C133.152 19.9983 132.801 19.0174 132.099 18.3513C131.397 17.6673 130.524 17.3254 129.48 17.3254C128.437 17.3254 127.563 17.6673 126.861 18.3513C126.159 19.0174 125.809 19.9983 125.809 21.2943V21.5643C125.809 22.8603 126.159 23.8502 126.861 24.5342C127.563 25.2003 128.437 25.5332 129.48 25.5332Z" fill="#EAEAEA"/>
<path d="M144.023 28.5032C142.277 28.5032 140.846 28.1251 139.73 27.3692C138.615 26.6132 137.939 25.5332 137.705 24.1293L140.837 23.3192C140.963 23.9493 141.17 24.4442 141.459 24.8042C141.764 25.1642 142.133 25.4253 142.566 25.5872C143.015 25.7312 143.501 25.8032 144.023 25.8032C144.816 25.8032 145.4 25.6682 145.778 25.3982C146.156 25.1102 146.345 24.7592 146.345 24.3452C146.345 23.9312 146.165 23.6163 145.805 23.4002C145.445 23.1663 144.869 22.9773 144.078 22.8333L143.321 22.6982C142.385 22.5183 141.531 22.2753 140.757 21.9693C139.982 21.6453 139.361 21.2043 138.893 20.6463C138.426 20.0884 138.191 19.3684 138.191 18.4864C138.191 17.1543 138.677 16.1374 139.65 15.4354C140.621 14.7154 141.9 14.3555 143.484 14.3555C144.977 14.3555 146.22 14.6884 147.209 15.3544C148.199 16.0204 148.847 16.8934 149.153 17.9734L145.995 18.9453C145.851 18.2614 145.554 17.7753 145.103 17.4874C144.671 17.1994 144.131 17.0554 143.484 17.0554C142.835 17.0554 142.341 17.1724 141.998 17.4064C141.656 17.6224 141.485 17.9284 141.485 18.3243C141.485 18.7563 141.665 19.0804 142.025 19.2963C142.385 19.4943 142.871 19.6473 143.484 19.7554L144.239 19.8903C145.247 20.0703 146.156 20.3134 146.966 20.6194C147.794 20.9073 148.442 21.3303 148.911 21.8883C149.396 22.4283 149.639 23.1663 149.639 24.1022C149.639 25.5063 149.126 26.5952 148.101 27.3692C147.092 28.1251 145.733 28.5032 144.023 28.5032Z" fill="#EAEAEA"/>
<path d="M156.508 28.3402C155.464 28.3402 154.546 28.1062 153.753 27.6382C152.979 27.1523 152.377 26.4862 151.944 25.6402C151.513 24.7942 151.297 23.8223 151.297 22.7243V14.7324H154.699V22.4543C154.699 23.4623 154.942 24.2182 155.428 24.7223C155.931 25.2262 156.643 25.4782 157.56 25.4782C158.605 25.4782 159.415 25.1363 159.99 24.4523C160.567 23.7503 160.855 22.7782 160.855 21.5363V14.7324H164.257V28.1242H160.908V26.3693H160.423C160.207 26.8193 159.801 27.2602 159.208 27.6922C158.614 28.1242 157.714 28.3402 156.508 28.3402Z" fill="#EAEAEA"/>
<path d="M166.828 28.1253V14.7335H170.176V16.1915H170.662C170.896 15.7415 171.284 15.3545 171.823 15.0306C172.363 14.6885 173.074 14.5176 173.956 14.5176C174.91 14.5176 175.676 14.7066 176.251 15.0845C176.827 15.4446 177.268 15.9215 177.574 16.5156H178.06C178.367 15.9396 178.798 15.4626 179.356 15.0845C179.914 14.7066 180.706 14.5176 181.732 14.5176C182.56 14.5176 183.307 14.6975 183.973 15.0576C184.657 15.3996 185.198 15.9305 185.593 16.6505C186.007 17.3525 186.214 18.2434 186.214 19.3235V28.1253H182.812V19.5665C182.812 18.8285 182.623 18.2795 182.246 17.9195C181.867 17.5415 181.336 17.3525 180.652 17.3525C179.879 17.3525 179.275 17.6044 178.843 18.1085C178.429 18.5944 178.223 19.2965 178.223 20.2144V28.1253H174.821V19.5665C174.821 18.8285 174.631 18.2795 174.253 17.9195C173.875 17.5415 173.345 17.3525 172.66 17.3525C171.886 17.3525 171.283 17.6044 170.851 18.1085C170.437 18.5944 170.23 19.2965 170.23 20.2144V28.1253H166.828Z" fill="#EAEAEA"/>
<path d="M45.5587 18.0001C45.5587 13.2262 43.6622 8.64775 40.2866 5.27209C36.9109 1.89643 32.3325 6.26023e-07 27.5586 0C22.7847 -6.26021e-07 18.2064 1.89643 14.8307 5.27209C11.455 8.64775 9.55859 13.2262 9.55859 18.0001H15.1837C17.0477 18.0001 18.5013 16.438 19.1841 14.7035C19.6323 13.5648 20.3125 12.5182 21.1946 11.636C22.8824 9.94823 25.1717 9.00002 27.5586 9.00002C29.9456 9.00002 32.2348 9.94823 33.9226 11.636C35.6105 13.3239 36.5586 15.6131 36.5586 18.0001H45.5587Z" fill="url(#paint0_linear_1_7644)"/>
<path d="M35.1879 24.8883C36.0925 22.7044 36.5581 20.3637 36.5581 18H45.5572C45.5572 27.9411 37.4982 35.9999 27.5571 35.9999C26.0003 35.9999 24.4895 35.8023 23.0488 35.4308C23.864 35.2208 24.6652 34.9533 25.4463 34.6298C27.6302 33.7252 29.6145 32.3994 31.286 30.7279C32.9575 29.0564 34.2834 27.0721 35.1879 24.8883Z" fill="#FBCF8E"/>
<path d="M0.558594 17.9999C0.558593 20.3637 1.02418 22.7044 1.92876 24.8883C2.83335 27.0721 4.15922 29.0564 5.83068 30.7279C7.50214 32.3993 9.48645 33.7252 11.6703 34.6298C13.8542 35.5344 16.1948 35.9999 18.5587 35.9999C20.9224 35.9999 23.263 35.5344 25.4469 34.6298C27.6308 33.7252 29.6151 32.3993 31.2866 30.7279C32.958 29.0564 34.2839 27.0721 35.1885 24.8883C36.0931 22.7044 36.5587 20.3637 36.5587 17.9999H30.9336C29.0696 17.9999 27.6159 19.5619 26.9332 21.2963C26.9138 21.3457 26.8939 21.3949 26.8736 21.4441C26.4213 22.536 25.7584 23.5282 24.9226 24.3639C24.0869 25.1996 23.0947 25.8626 22.0028 26.3149C20.9109 26.7672 19.7406 27 18.5587 27C17.3767 27 16.2064 26.7672 15.1145 26.3149C14.0225 25.8626 13.0304 25.1996 12.1946 24.3639C11.3589 23.5282 10.696 22.536 10.2437 21.4441C9.7914 20.3521 9.55861 19.1818 9.55861 17.9999H0.558594Z" fill="url(#paint1_linear_1_7644)"/>
<path d="M0.560547 18.0001C0.560547 8.05886 8.61941 0 18.5605 0C20.117 0 21.6273 0.197544 23.0679 0.568943C19.9768 1.36523 17.1254 2.97669 14.8299 5.2721C11.4542 8.64773 9.55783 13.2262 9.55783 18.0001H0.560547Z" fill="#73E5E2"/>
<defs>
<linearGradient id="paint0_linear_1_7644" x1="45.5587" y1="9.00002" x2="9.55859" y2="9.00002" gradientUnits="userSpaceOnUse">
<stop stop-color="#73E5E2"/>
<stop offset="1" stop-color="#394F87"/>
</linearGradient>
<linearGradient id="paint1_linear_1_7644" x1="0.558595" y1="27" x2="36.5587" y2="27" gradientUnits="userSpaceOnUse">
<stop stop-color="#FBDC8E"/>
<stop offset="1" stop-color="#FB958E"/>
</linearGradient>
</defs>
</svg>
